<svg version="1.1" id="Layer_1" xmlns="http://www.w3.org/2000/svg" xmlns:xlink="http://www.w3.org/1999/xlink" x="0px" y="0px"
	 width="100%" viewBox="0 0 512 512" enable-background="new 0 0 512 512" xml:space="preserve">
<path fill="#fff" opacity="1.000000" stroke="none" 
	d="
M484.000000,513.000000 
	C332.979095,513.000000 181.958206,513.000000 30.382935,512.649597 
	C26.962730,509.967651 25.925573,507.059326 25.930601,503.280060 
	C26.024971,432.350189 26.000000,361.420135 26.000000,290.490143 
	C26.000000,288.727631 26.000000,286.965088 26.000000,285.000000 
	C21.612038,285.000000 17.795839,284.849854 13.996337,285.037598 
	C9.125051,285.278320 4.522183,284.962463 1.000000,281.000000 
	C1.000000,259.312439 1.000000,237.624878 1.350410,215.382935 
	C4.034405,211.960022 6.935574,210.807953 10.729953,210.926453 
	C18.554903,211.170837 26.392975,210.969589 34.225353,211.009613 
	C40.515850,211.041748 43.959129,214.545074 43.992764,220.910980 
	C44.025921,227.186707 44.000000,233.462769 44.000000,239.742004 
	C47.921135,239.742004 51.326698,239.742004 55.000053,239.742004 
	C55.000053,233.350586 54.713703,227.195969 55.080288,221.080505 
	C55.449757,214.916870 57.169090,210.977280 65.120338,210.995193 
	C74.286079,211.015839 83.452202,210.955719 92.617584,211.016571 
	C98.160286,211.053375 100.990280,213.974442 100.997787,219.459747 
	C101.007050,226.229813 101.000000,232.999908 101.000000,239.723450 
	C105.291031,239.723450 109.031525,239.723450 113.000000,239.723450 
	C113.000000,233.140427 112.991798,226.832047 113.002228,220.523697 
	C113.013428,213.746384 115.599236,211.081451 122.452988,211.017471 
	C130.451523,210.942780 138.451706,210.949554 146.450409,211.015152 
	C153.517609,211.073105 155.997940,213.702332 155.998825,220.927017 
	C156.001877,245.924622 156.000000,270.922241 156.000000,295.919830 
	C156.000000,297.525208 156.000000,299.130585 156.000000,300.735840 
	C162.929352,300.735840 169.334305,300.735840 176.000000,300.735840 
	C176.000000,288.669464 175.961777,276.864990 176.046646,265.061401 
	C176.057709,263.523346 176.364990,261.795776 177.116287,260.490509 
	C179.395462,256.530823 183.784546,255.769470 186.999008,257.385498 
	C189.416809,258.601044 191.728333,262.671478 191.784775,265.516724 
	C192.187927,285.840118 192.000000,306.175201 192.000000,326.506592 
	C192.000000,328.273041 192.000000,330.039520 192.000000,331.706879 
	C195.990417,331.706879 199.397781,331.706879 203.000046,331.706879 
	C203.000046,324.603058 202.485016,317.741425 203.134705,310.991852 
	C203.890869,303.136047 205.768799,300.700470 213.098999,300.924011 
	C223.088745,301.228668 233.094803,300.984680 243.093796,301.006500 
	C248.038010,301.017303 250.975525,303.920776 250.992859,308.813568 
	C251.019852,316.430084 251.000000,324.046753 251.000000,331.776123 
	C255.183899,331.776123 258.922119,331.776123 263.000000,331.776123 
	C263.000000,323.928406 262.976135,316.299377 263.008881,308.670563 
	C263.028778,304.037994 265.976898,301.028534 270.549286,301.011200 
	C280.214905,300.974518 289.880737,300.999939 299.546478,301.000000 
	C308.755341,301.000031 310.982300,303.253693 310.997955,312.621735 
	C311.008698,319.048187 311.000000,325.474609 311.000000,331.665710 
	C315.071747,331.665710 318.478485,331.665710 321.667603,331.665710 
	C321.667603,282.929352 321.667603,234.527802 321.667603,186.332428 
	C278.265076,186.332428 235.195496,186.332428 191.999969,186.332428 
	C191.999969,200.653488 192.035416,214.642548 191.982391,228.631287 
	C191.961411,234.168396 188.916946,237.084412 183.520798,236.999985 
	C178.809494,236.926254 176.009949,233.892029 176.003799,228.795166 
	C175.991135,218.296188 176.000000,207.797180 176.000000,197.298187 
	C176.000000,193.550919 176.000000,189.803665 176.000000,186.000000 
	C169.616379,186.000000 163.922150,185.642639 158.298553,186.119034 
	C154.191147,186.466995 151.516510,184.251602 150.427582,181.424591 
	C149.533508,179.103439 150.009415,175.025436 151.585800,173.204620 
	C157.045395,166.898483 163.257172,161.244476 169.170685,155.330276 
	C194.857117,129.640930 220.576233,103.983902 246.135010,78.168129 
	C247.737793,76.549232 248.852432,73.685280 248.877670,71.386124 
	C249.091751,51.890343 249.099091,32.390331 248.926971,12.893719 
	C248.886383,8.296995 249.071701,4.091591 253.000000,1.000000 
	C278.687561,1.000000 304.375122,1.000000 330.628418,1.351852 
	C335.387665,3.635212 337.118469,6.958080 334.921875,11.020220 
	C331.727844,16.926876 327.717285,22.388533 324.422791,28.246815 
	C323.625000,29.665415 323.566711,32.307030 324.374237,33.673782 
	C327.073578,38.242378 330.504089,42.374241 333.292023,46.896877 
	C335.181366,49.961750 336.876923,53.050430 334.598846,57.134342 
	C332.453766,60.979759 329.397003,61.010895 325.914886,61.007839 
	C307.088898,60.991302 288.262878,60.994904 269.436890,61.010143 
	C268.005707,61.011303 266.574615,61.156719 265.000000,61.242935 
	C265.000000,63.601963 265.257751,65.626869 264.951660,67.562607 
	C264.033020,73.371902 266.550385,77.303047 270.628418,81.306679 
	C291.551239,101.847725 312.134064,122.734520 332.940887,143.394592 
	C341.997467,152.387299 351.319336,161.112457 360.491974,169.988815 
	C363.634277,173.029602 365.911896,176.637756 363.885986,181.029999 
	C362.063019,184.982285 358.476898,186.292648 354.073425,186.064285 
	C348.814636,185.791595 343.530945,186.000000 338.248230,186.000000 
	C338.248230,224.581177 338.248230,262.642609 338.248230,300.750061 
	C344.903168,300.750061 351.307007,300.750061 358.000000,300.750061 
	C358.000000,298.868927 358.000000,297.234375 358.000000,295.599823 
	C358.000000,270.442963 357.992035,245.286118 358.005676,220.129257 
	C358.009003,213.960587 360.625793,211.144058 366.843567,211.035950 
	C375.171143,210.891144 383.504059,210.923004 391.832886,211.024673 
	C398.380798,211.104584 400.981262,213.831421 400.996643,220.305222 
	C401.011932,226.755020 401.000000,233.204895 401.000000,239.782257 
	C405.172852,239.782257 408.910156,239.782257 413.000000,239.782257 
	C413.000000,232.944641 412.995850,226.318954 413.001282,219.693253 
	C413.006012,213.899155 415.804535,211.041031 421.644531,211.011383 
	C430.307617,210.967392 438.981384,211.262894 447.631317,210.922791 
	C455.575989,210.610428 459.022858,214.375290 459.002838,222.324387 
	C458.988251,228.106735 459.000000,233.889145 459.000000,239.776260 
	C462.853363,239.776260 466.256775,239.776260 469.487000,239.776260 
	C469.753021,239.424164 469.934174,239.296234 469.934875,239.167328 
	C469.966431,233.170197 469.973846,227.172943 470.002258,221.175797 
	C470.033905,214.500824 473.426422,211.033951 480.004730,211.006546 
	C487.001892,210.977402 494.009369,211.228897 500.992950,210.919678 
	C505.666840,210.712738 509.700806,211.560181 513.000000,215.000000 
	C513.000000,236.687561 513.000000,258.375122 512.649597,280.617065 
	C509.965179,284.041107 507.066711,285.276550 503.266418,285.066711 
	C498.323761,284.793823 493.354614,285.000000 488.000000,285.000000 
	C488.000000,286.667358 488.000031,287.954620 488.000000,289.241882 
	C487.999939,302.241608 488.058441,315.241760 487.968384,328.240875 
	C487.936493,332.843475 484.077393,336.897247 480.058258,336.959015 
	C475.809357,337.024323 472.021912,332.821594 472.004883,327.972321 
	C471.984344,322.139191 472.000000,316.305939 472.000000,310.472717 
	C472.000000,302.043030 472.000000,293.613312 472.000000,285.302124 
	C438.997131,285.302124 406.591919,285.302124 374.304993,285.302124 
	C374.304993,356.008972 374.304993,426.413300 374.304993,496.691345 
	C407.016022,496.691345 439.421295,496.691345 472.000000,496.691345 
	C472.000000,494.566467 472.000000,492.749207 472.000000,490.931946 
	C472.000000,449.266144 471.995026,407.600372 472.018616,365.934570 
	C472.019531,364.311401 471.953888,362.560944 472.505554,361.089630 
	C474.043396,356.988373 477.348633,355.495453 481.525940,356.037720 
	C485.608368,356.567657 487.993073,359.953888 487.994171,364.994385 
	C488.004211,410.326752 487.945404,455.659302 488.082458,500.991272 
	C488.096527,505.649323 487.442322,509.699677 484.000000,513.000000 
M195.506989,348.000000 
	C192.007751,348.000000 188.508392,348.018066 185.009293,347.996033 
	C178.836411,347.957184 176.031708,345.186462 176.006897,339.047607 
	C175.977524,331.779419 176.000000,324.511047 176.000000,317.273193 
	C169.051285,317.273193 162.646683,317.273193 156.263245,317.273193 
	C156.263245,377.275757 156.263245,437.004761 156.263245,496.735596 
	C169.931717,496.735596 183.335236,496.735596 197.000000,496.735596 
	C197.000000,484.836945 196.871155,473.199127 197.034256,461.565399 
	C197.217590,448.487213 196.823547,435.323669 198.197601,422.358002 
	C200.161896,403.822937 209.638580,389.722839 225.686050,379.557617 
	C247.999130,365.423401 279.801483,368.638214 298.805695,387.407684 
	C310.735413,399.189972 316.714752,413.870361 316.934967,430.599274 
	C317.206940,451.257690 316.995300,471.922424 317.010193,492.584412 
	C317.011230,494.012970 317.158081,495.441406 317.226654,496.680359 
	C331.043640,496.680359 344.448517,496.680359 357.690369,496.680359 
	C357.690369,436.631012 357.690369,376.901703 357.690369,317.312500 
	C350.969421,317.312500 344.561768,317.312500 338.000000,317.312500 
	C338.000000,324.940826 338.044983,332.257843 337.985291,339.573975 
	C337.940491,345.063416 335.009613,347.954681 329.463989,347.986725 
	C320.799591,348.036804 312.133209,347.907227 303.470581,348.041809 
	C299.537415,348.102875 296.669342,346.314545 295.184570,343.054230 
	C294.157806,340.799591 294.111145,337.994934 294.048065,335.425720 
	C293.898529,329.335388 294.000000,323.238892 294.000000,317.316284 
	C288.630890,317.316284 283.891510,317.316284 279.000000,317.316284 
	C279.000000,324.449341 279.025665,331.267059 278.992523,338.084473 
	C278.961578,344.452057 275.518066,347.958588 269.232086,347.990234 
	C261.234100,348.030487 253.235733,348.014740 245.237595,347.995544 
	C238.313736,347.978943 235.016678,344.608002 235.002869,337.554443 
	C234.989609,330.785431 235.000000,324.016388 235.000000,317.270813 
	C229.720993,317.270813 224.982117,317.270813 220.384171,317.270813 
	C220.184052,317.681885 220.056564,317.821838 220.056015,317.962341 
	C220.030380,324.460419 220.059692,330.958984 219.988083,337.456482 
	C219.910873,344.461700 216.367722,347.983215 209.500443,347.998230 
	C205.168106,348.007721 200.835739,348.000000 195.506989,348.000000 
M140.000000,388.500000 
	C140.000000,354.072784 140.000000,319.645599 140.000000,285.287598 
	C107.023567,285.287598 74.619881,285.287598 42.285984,285.287598 
	C42.285984,355.976837 42.285984,426.378113 42.285984,496.712402 
	C74.976456,496.712402 107.380135,496.712402 140.000000,496.712402 
	C140.000000,460.783478 140.000000,425.141724 140.000000,388.500000 
M195.502426,170.000000 
	C242.208862,170.000000 288.915314,170.000000 336.830475,170.000000 
	C309.680328,143.255280 283.447937,117.414604 256.972321,91.334335 
	C230.337799,117.602631 204.163849,143.416702 177.209930,170.000000 
	C183.891830,170.000000 189.197922,170.000000 195.502426,170.000000 
M265.000000,392.710693 
	C265.000000,427.419067 265.000000,462.127441 265.000000,496.700012 
	C277.356262,496.700012 289.085022,496.700012 300.999908,496.700012 
	C300.999908,475.281586 301.283569,454.157104 300.876099,433.045929 
	C300.682556,423.018219 298.453278,413.245728 292.001404,405.010101 
	C285.116394,396.221558 276.717224,389.854706 265.390747,387.973267 
	C265.198761,388.642303 265.045807,388.954956 265.029633,389.274506 
	C264.987671,390.104797 265.005829,390.938141 265.000000,392.710693 
M238.707108,391.026703 
	C221.370941,399.934998 213.456985,414.721527 213.089325,433.625916 
	C212.694336,453.934967 212.997253,474.257660 213.014923,494.574402 
	C213.015579,495.341980 213.217941,496.109375 213.300095,496.691284 
	C225.364761,496.691284 237.098297,496.691284 248.780579,496.691284 
	C248.780579,460.304443 248.780579,424.226776 248.780579,387.378510 
	C245.394791,388.681305 242.444031,389.816742 238.707108,391.026703 
M393.859680,256.000000 
	C387.522797,255.672256 385.026642,253.131012 385.005096,246.911606 
	C384.982300,240.321487 385.000000,233.731247 385.000000,227.310791 
	C380.970917,227.310791 377.565460,227.310791 374.297791,227.310791 
	C374.297791,241.351547 374.297791,255.079834 374.297791,268.746796 
	C415.302094,268.746796 456.008148,268.746796 496.760468,268.746796 
	C496.760468,254.762695 496.760468,241.033096 496.760468,227.237885 
	C493.114227,227.237885 489.712250,227.237885 486.000000,227.237885 
	C486.000000,234.429565 486.025330,241.388275 485.991089,248.346680 
	C485.968323,252.969406 483.019653,255.970078 478.446411,255.989029 
	C469.456757,256.026276 460.466797,256.006775 451.476990,255.997574 
	C445.584076,255.991516 443.005859,253.331284 443.001190,247.272415 
	C442.996002,240.529495 443.000000,233.786575 443.000000,227.360168 
	C437.867188,227.360168 433.461121,227.360168 428.999969,227.360168 
	C428.999969,234.043747 429.142029,240.371521 428.958588,246.689835 
	C428.787476,252.583786 425.335083,256.467377 419.753448,256.129913 
	C411.459839,255.628448 403.113495,256.000000 393.859680,256.000000 
M18.709473,268.996063 
	C59.117126,268.996063 99.524780,268.996063 139.637787,268.996063 
	C139.637787,254.535110 139.637787,240.793015 139.637787,227.187439 
	C135.983994,227.187439 132.693207,227.187439 129.000000,227.187439 
	C129.000000,233.987579 129.027817,240.609009 128.991638,247.230072 
	C128.959793,253.056152 126.090408,255.961792 120.305588,255.989731 
	C111.972862,256.029968 103.599556,255.494202 95.319061,256.153076 
	C88.131142,256.725006 84.826714,251.643036 84.967499,245.741806 
	C85.113457,239.623550 85.000000,233.499115 85.000000,227.205856 
	C80.189194,227.205856 75.784279,227.205856 71.000000,227.205856 
	C71.000000,234.195847 71.010925,240.987061 70.996506,247.778214 
	C70.985161,253.118042 68.210602,255.982025 63.001469,255.994171 
	C54.001968,256.015167 45.002350,256.015106 36.002850,255.994232 
	C30.789816,255.982147 28.014757,253.121155 28.003544,247.782532 
	C27.989019,240.868088 28.000000,233.953583 28.000000,227.188446 
	C23.981464,227.188446 20.690912,227.188446 17.000000,227.188446 
	C17.000000,239.492325 16.970467,251.612366 17.033106,263.731903 
	C17.042089,265.470306 17.495966,267.206390 18.709473,268.996063 
M275.521545,17.000000 
	C272.086365,17.000000 268.651184,17.000000 265.264771,17.000000 
	C265.264771,26.616104 265.264771,35.678726 265.264771,44.752563 
	C280.866028,44.752563 296.201202,44.752563 312.868774,44.752563 
	C302.147125,35.419052 301.957794,26.291162 312.641083,17.000000 
	C299.778870,17.000000 288.147980,17.000000 275.521545,17.000000 
z"/>
<path fill="#FFFFFF" opacity="0" stroke="#FFFFFF" 
	d="
M252.531342,1.000000 
	C249.071701,4.091591 248.886383,8.296995 248.926971,12.893719 
	C249.099091,32.390331 249.091751,51.890343 248.877670,71.386124 
	C248.852432,73.685280 247.737793,76.549232 246.135010,78.168129 
	C220.576233,103.983902 194.857117,129.640930 169.170685,155.330276 
	C163.257172,161.244476 157.045395,166.898483 151.585800,173.204620 
	C150.009415,175.025436 149.533508,179.103439 150.427582,181.424591 
	C151.516510,184.251602 154.191147,186.466995 158.298553,186.119034 
	C163.922150,185.642639 169.616379,186.000000 176.000000,186.000000 
	C176.000000,189.803665 176.000000,193.550919 176.000000,197.298187 
	C176.000000,207.797180 175.991135,218.296188 176.003799,228.795166 
	C176.009949,233.892029 178.809494,236.926254 183.520798,236.999985 
	C188.916946,237.084412 191.961411,234.168396 191.982391,228.631287 
	C192.035416,214.642548 191.999969,200.653488 191.999969,186.332428 
	C235.195496,186.332428 278.265076,186.332428 321.667603,186.332428 
	C321.667603,234.527802 321.667603,282.929352 321.667603,331.665710 
	C318.478485,331.665710 315.071747,331.665710 311.000000,331.665710 
	C311.000000,325.474609 311.008698,319.048187 310.997955,312.621735 
	C310.982300,303.253693 308.755341,301.000031 299.546478,301.000000 
	C289.880737,300.999939 280.214905,300.974518 270.549286,301.011200 
	C265.976898,301.028534 263.028778,304.037994 263.008881,308.670563 
	C262.976135,316.299377 263.000000,323.928406 263.000000,331.776123 
	C258.922119,331.776123 255.183899,331.776123 251.000000,331.776123 
	C251.000000,324.046753 251.019852,316.430084 250.992859,308.813568 
	C250.975525,303.920776 248.038010,301.017303 243.093796,301.006500 
	C233.094803,300.984680 223.088745,301.228668 213.098999,300.924011 
	C205.768799,300.700470 203.890869,303.136047 203.134705,310.991852 
	C202.485016,317.741425 203.000046,324.603058 203.000046,331.706879 
	C199.397781,331.706879 195.990417,331.706879 192.000000,331.706879 
	C192.000000,330.039520 192.000000,328.273041 192.000000,326.506592 
	C192.000000,306.175201 192.187927,285.840118 191.784775,265.516724 
	C191.728333,262.671478 189.416809,258.601044 186.999008,257.385498 
	C183.784546,255.769470 179.395462,256.530823 177.116287,260.490509 
	C176.364990,261.795776 176.057709,263.523346 176.046646,265.061401 
	C175.961777,276.864990 176.000000,288.669464 176.000000,300.735840 
	C169.334305,300.735840 162.929352,300.735840 156.000000,300.735840 
	C156.000000,299.130585 156.000000,297.525208 156.000000,295.919830 
	C156.000000,270.922241 156.001877,245.924622 155.998825,220.927017 
	C155.997940,213.702332 153.517609,211.073105 146.450409,211.015152 
	C138.451706,210.949554 130.451523,210.942780 122.452988,211.017471 
	C115.599236,211.081451 113.013428,213.746384 113.002228,220.523697 
	C112.991798,226.832047 113.000000,233.140427 113.000000,239.723450 
	C109.031525,239.723450 105.291031,239.723450 101.000000,239.723450 
	C101.000000,232.999908 101.007050,226.229813 100.997787,219.459747 
	C100.990280,213.974442 98.160286,211.053375 92.617584,211.016571 
	C83.452202,210.955719 74.286079,211.015839 65.120338,210.995193 
	C57.169090,210.977280 55.449757,214.916870 55.080288,221.080505 
	C54.713703,227.195969 55.000053,233.350586 55.000053,239.742004 
	C51.326698,239.742004 47.921135,239.742004 44.000000,239.742004 
	C44.000000,233.462769 44.025921,227.186707 43.992764,220.910980 
	C43.959129,214.545074 40.515850,211.041748 34.225353,211.009613 
	C26.392975,210.969589 18.554903,211.170837 10.729953,210.926453 
	C6.935574,210.807953 4.034405,211.960022 1.350410,214.914276 
	C1.000000,143.733673 1.000000,72.467339 1.000000,1.000000 
	C84.687454,1.000000 168.375061,1.000000 252.531342,1.000000 
M228.000031,274.019836 
	C228.161194,279.486511 232.271820,280.806702 236.356293,280.890961 
	C250.159454,281.175629 263.980835,281.282990 277.776886,280.859802 
	C283.298340,280.690399 286.306244,278.058594 286.140961,271.883789 
	C285.718231,256.089600 286.010681,240.276520 285.982330,224.471039 
	C285.979706,223.004654 285.926636,221.487656 285.562927,220.080490 
	C282.026276,206.397644 269.738983,197.498001 255.887482,197.859436 
	C241.228470,198.241928 227.764984,210.999710 227.954056,225.691086 
	C228.157440,241.493988 228.000000,257.301544 228.000031,274.019836 
M196.000076,200.294098 
	C196.680267,204.559662 199.026489,206.984894 203.492264,206.995239 
	C210.972672,207.012573 218.453339,206.970016 225.933548,207.012207 
	C229.860001,207.034348 232.229263,204.575775 232.834991,201.334335 
	C233.559097,197.459488 233.188004,192.561813 228.097534,192.152191 
	C219.357574,191.448929 210.522781,191.591812 201.742584,191.861298 
	C197.327972,191.996780 195.953735,195.433319 196.000076,200.294098 
z"/>
<path fill="#FFFFFF" opacity="0" stroke="none" 
	d="
M513.000000,214.531342 
	C509.700806,211.560181 505.666840,210.712738 500.992950,210.919678 
	C494.009369,211.228897 487.001892,210.977402 480.004730,211.006546 
	C473.426422,211.033951 470.033905,214.500824 470.002258,221.175797 
	C469.973846,227.172943 469.966431,233.170197 469.934875,239.167328 
	C469.934174,239.296234 469.753021,239.424164 469.487000,239.776260 
	C466.256775,239.776260 462.853363,239.776260 459.000000,239.776260 
	C459.000000,233.889145 458.988251,228.106735 459.002838,222.324387 
	C459.022858,214.375290 455.575989,210.610428 447.631317,210.922791 
	C438.981384,211.262894 430.307617,210.967392 421.644531,211.011383 
	C415.804535,211.041031 413.006012,213.899155 413.001282,219.693253 
	C412.995850,226.318954 413.000000,232.944641 413.000000,239.782257 
	C408.910156,239.782257 405.172852,239.782257 401.000000,239.782257 
	C401.000000,233.204895 401.011932,226.755020 400.996643,220.305222 
	C400.981262,213.831421 398.380798,211.104584 391.832886,211.024673 
	C383.504059,210.923004 375.171143,210.891144 366.843567,211.035950 
	C360.625793,211.144058 358.009003,213.960587 358.005676,220.129257 
	C357.992035,245.286118 358.000000,270.442963 358.000000,295.599823 
	C358.000000,297.234375 358.000000,298.868927 358.000000,300.750061 
	C351.307007,300.750061 344.903168,300.750061 338.248230,300.750061 
	C338.248230,262.642609 338.248230,224.581177 338.248230,186.000000 
	C343.530945,186.000000 348.814636,185.791595 354.073425,186.064285 
	C358.476898,186.292648 362.063019,184.982285 363.885986,181.029999 
	C365.911896,176.637756 363.634277,173.029602 360.491974,169.988815 
	C351.319336,161.112457 341.997467,152.387299 332.940887,143.394592 
	C312.134064,122.734520 291.551239,101.847725 270.628418,81.306679 
	C266.550385,77.303047 264.033020,73.371902 264.951660,67.562607 
	C265.257751,65.626869 265.000000,63.601963 265.000000,61.242935 
	C266.574615,61.156719 268.005707,61.011303 269.436890,61.010143 
	C288.262878,60.994904 307.088898,60.991302 325.914886,61.007839 
	C329.397003,61.010895 332.453766,60.979759 334.598846,57.134342 
	C336.876923,53.050430 335.181366,49.961750 333.292023,46.896877 
	C330.504089,42.374241 327.073578,38.242378 324.374237,33.673782 
	C323.566711,32.307030 323.625000,29.665415 324.422791,28.246815 
	C327.717285,22.388533 331.727844,16.926876 334.921875,11.020220 
	C337.118469,6.958080 335.387665,3.635212 331.097107,1.351852 
	C391.599579,1.000000 452.199188,1.000000 513.000000,1.000000 
	C513.000000,72.020767 513.000000,143.041733 513.000000,214.531342 
z"/>
<path fill="#FFFFFF" opacity="0" stroke="none" 
	d="
M484.468658,513.000000 
	C487.442322,509.699677 488.096527,505.649323 488.082458,500.991272 
	C487.945404,455.659302 488.004211,410.326752 487.994171,364.994385 
	C487.993073,359.953888 485.608368,356.567657 481.525940,356.037720 
	C477.348633,355.495453 474.043396,356.988373 472.505554,361.089630 
	C471.953888,362.560944 472.019531,364.311401 472.018616,365.934570 
	C471.995026,407.600372 472.000000,449.266144 472.000000,490.931946 
	C472.000000,492.749207 472.000000,494.566467 472.000000,496.691345 
	C439.421295,496.691345 407.016022,496.691345 374.304993,496.691345 
	C374.304993,426.413300 374.304993,356.008972 374.304993,285.302124 
	C406.591919,285.302124 438.997131,285.302124 472.000000,285.302124 
	C472.000000,293.613312 472.000000,302.043030 472.000000,310.472717 
	C472.000000,316.305939 471.984344,322.139191 472.004883,327.972321 
	C472.021912,332.821594 475.809357,337.024323 480.058258,336.959015 
	C484.077393,336.897247 487.936493,332.843475 487.968384,328.240875 
	C488.058441,315.241760 487.999939,302.241608 488.000000,289.241882 
	C488.000031,287.954620 488.000000,286.667358 488.000000,285.000000 
	C493.354614,285.000000 498.323761,284.793823 503.266418,285.066711 
	C507.066711,285.276550 509.965179,284.041107 512.649597,281.085724 
	C513.000000,358.333344 513.000000,435.666687 513.000000,513.000000 
	C503.572662,513.000000 494.254974,513.000000 484.468658,513.000000 
M391.000000,373.471008 
	C391.000000,375.301849 391.229004,377.167053 390.960358,378.957581 
	C389.797821,386.706482 394.548798,390.128235 402.003571,390.040802 
	C414.651428,389.892487 427.302307,390.015656 439.951874,389.994293 
	C447.948944,389.980804 449.828064,386.115326 449.855865,380.372040 
	C449.934387,364.151581 449.575073,347.917999 448.910583,331.709137 
	C448.510620,321.953308 442.811005,314.684326 434.612488,310.415619 
	C414.055084,299.712036 390.571198,313.891815 390.964783,337.028259 
	C391.165741,348.842224 391.000000,360.662415 391.000000,373.471008 
M425.577698,457.000000 
	C430.071503,457.000000 434.580231,457.231079 439.055450,456.942871 
	C444.961853,456.562439 448.464539,453.175110 448.077271,448.390228 
	C447.693420,443.647003 444.851105,441.004242 439.186768,441.000885 
	C432.695709,440.997070 426.204620,440.995270 419.713562,441.001373 
	C413.475342,441.007233 411.259399,442.705780 411.000122,447.659546 
	C410.708679,453.228516 413.157684,456.308868 418.622498,456.955688 
	C420.592407,457.188873 422.612579,456.997589 425.577698,457.000000 
M410.430878,432.000000 
	C412.427216,432.000000 414.423889,432.022247 416.419861,431.995361 
	C420.612213,431.938843 423.734009,429.248718 423.881989,424.737366 
	C423.995514,421.276184 422.594818,417.484558 418.752899,417.160004 
	C410.265442,416.442963 401.696533,416.168640 393.186401,416.460052 
	C388.876404,416.607635 386.275970,420.294373 386.184326,424.427460 
	C386.072815,429.455597 389.648956,431.986115 395.477386,431.998077 
	C400.135498,432.007629 404.793701,432.000000 410.430878,432.000000 
z"/>
<path fill="#FFFFFF" opacity="0" stroke="none" 
	d="
M1.000000,281.468658 
	C4.522183,284.962463 9.125051,285.278320 13.996337,285.037598 
	C17.795839,284.849854 21.612038,285.000000 26.000000,285.000000 
	C26.000000,286.965088 26.000000,288.727631 26.000000,290.490143 
	C26.000000,361.420135 26.024971,432.350189 25.930601,503.280060 
	C25.925573,507.059326 26.962730,509.967651 29.914276,512.649597 
	C20.349562,513.000000 10.699122,513.000000 1.000000,513.000000 
	C1.000000,435.979126 1.000000,358.958221 1.000000,281.468658 
z"/>
<path fill="#FFFFFF" opacity="0" stroke="none" 
	d="
M196.005188,348.000000 
	C200.835739,348.000000 205.168106,348.007721 209.500443,347.998230 
	C216.367722,347.983215 219.910873,344.461700 219.988083,337.456482 
	C220.059692,330.958984 220.030380,324.460419 220.056015,317.962341 
	C220.056564,317.821838 220.184052,317.681885 220.384171,317.270813 
	C224.982117,317.270813 229.720993,317.270813 235.000000,317.270813 
	C235.000000,324.016388 234.989609,330.785431 235.002869,337.554443 
	C235.016678,344.608002 238.313736,347.978943 245.237595,347.995544 
	C253.235733,348.014740 261.234100,348.030487 269.232086,347.990234 
	C275.518066,347.958588 278.961578,344.452057 278.992523,338.084473 
	C279.025665,331.267059 279.000000,324.449341 279.000000,317.316284 
	C283.891510,317.316284 288.630890,317.316284 294.000000,317.316284 
	C294.000000,323.238892 293.898529,329.335388 294.048065,335.425720 
	C294.111145,337.994934 294.157806,340.799591 295.184570,343.054230 
	C296.669342,346.314545 299.537415,348.102875 303.470581,348.041809 
	C312.133209,347.907227 320.799591,348.036804 329.463989,347.986725 
	C335.009613,347.954681 337.940491,345.063416 337.985291,339.573975 
	C338.044983,332.257843 338.000000,324.940826 338.000000,317.312500 
	C344.561768,317.312500 350.969421,317.312500 357.690369,317.312500 
	C357.690369,376.901703 357.690369,436.631012 357.690369,496.680359 
	C344.448517,496.680359 331.043640,496.680359 317.226654,496.680359 
	C317.158081,495.441406 317.011230,494.012970 317.010193,492.584412 
	C316.995300,471.922424 317.206940,451.257690 316.934967,430.599274 
	C316.714752,413.870361 310.735413,399.189972 298.805695,387.407684 
	C279.801483,368.638214 247.999130,365.423401 225.686050,379.557617 
	C209.638580,389.722839 200.161896,403.822937 198.197601,422.358002 
	C196.823547,435.323669 197.217590,448.487213 197.034256,461.565399 
	C196.871155,473.199127 197.000000,484.836945 197.000000,496.735596 
	C183.335236,496.735596 169.931717,496.735596 156.263245,496.735596 
	C156.263245,437.004761 156.263245,377.275757 156.263245,317.273193 
	C162.646683,317.273193 169.051285,317.273193 176.000000,317.273193 
	C176.000000,324.511047 175.977524,331.779419 176.006897,339.047607 
	C176.031708,345.186462 178.836411,347.957184 185.009293,347.996033 
	C188.508392,348.018066 192.007751,348.000000 196.005188,348.000000 
M181.500488,405.000000 
	C185.318298,404.999756 189.147202,405.182739 192.951111,404.952698 
	C197.659622,404.667938 200.275955,401.074249 199.999924,395.751526 
	C199.807526,392.041473 196.552902,389.032288 192.571121,389.011139 
	C185.267685,388.972321 177.962326,388.909363 170.660767,389.033081 
	C166.004105,389.111938 162.963333,392.289307 163.000015,396.639801 
	C163.041763,401.588959 165.855881,404.783630 170.553543,404.973785 
	C173.867950,405.107910 177.192184,404.999908 181.500488,405.000000 
M323.635986,371.000000 
	C322.637421,371.000000 321.638855,370.997955 320.640289,371.000336 
	C315.611053,371.012360 312.251801,373.567169 312.000244,377.569977 
	C311.669525,382.833252 314.388947,386.624023 319.619232,386.896912 
	C326.922028,387.277954 334.278809,387.313995 341.576141,386.882599 
	C346.995056,386.562195 349.406433,382.995544 348.999573,377.459869 
	C348.667847,372.946533 346.159332,371.014160 340.577026,371.002411 
	C335.251404,370.991211 329.925690,371.000000 323.635986,371.000000 
z"/>
<path fill="#FFFFFF" opacity="0" stroke="none" 
	d="
M140.000000,389.000000 
	C140.000000,425.141724 140.000000,460.783478 140.000000,496.712402 
	C107.380135,496.712402 74.976456,496.712402 42.285984,496.712402 
	C42.285984,426.378113 42.285984,355.976837 42.285984,285.287598 
	C74.619881,285.287598 107.023567,285.287598 140.000000,285.287598 
	C140.000000,319.645599 140.000000,354.072784 140.000000,389.000000 
M97.182243,308.000732 
	C88.850166,306.043579 80.905060,306.504456 73.351677,311.102844 
	C63.113369,317.335693 59.400757,327.048584 59.092602,338.225311 
	C58.707561,352.190521 58.921303,366.175079 59.037239,380.149963 
	C59.086525,386.091003 62.762794,389.951660 68.170494,389.977966 
	C81.813248,390.044342 95.457260,390.082336 109.099297,389.962982 
	C115.330254,389.908478 117.985603,387.060516 117.993362,380.948212 
	C118.013237,365.308624 118.008720,349.668945 117.984108,334.029358 
	C117.982056,332.721985 117.904755,331.380249 117.609871,330.113251 
	C115.075562,319.224243 108.302246,312.060059 97.182243,308.000732 
M52.015411,426.935883 
	C54.102604,430.773987 57.127026,432.362122 61.668552,432.099060 
	C68.312798,431.714111 74.999130,431.874573 81.661263,432.046051 
	C85.787598,432.152222 88.040115,429.933807 88.918594,426.418335 
	C90.085976,421.746796 88.101425,417.656830 83.636253,417.079498 
	C76.483856,416.154663 69.193336,416.282318 61.959610,416.006989 
	C56.183094,415.787140 50.647598,419.443817 52.015411,426.935883 
M94.500275,441.000000 
	C90.840828,441.000000 87.163475,441.229126 83.526222,440.944977 
	C78.381180,440.543091 76.854195,444.342316 76.226166,447.851746 
	C75.593895,451.384796 77.130798,455.487183 81.302048,455.842255 
	C89.781120,456.563995 98.345345,456.802307 106.848808,456.505188 
	C111.168320,456.354279 113.758430,452.680389 113.786537,448.535797 
	C113.821304,443.407562 110.388878,441.015198 104.475090,441.001251 
	C101.481010,440.994202 98.486893,441.000000 94.500275,441.000000 
z"/>
<path fill="#FFFFFF" opacity="0" stroke="none" 
	d="
M195.003235,170.000000 
	C189.197922,170.000000 183.891830,170.000000 177.209930,170.000000 
	C204.163849,143.416702 230.337799,117.602631 256.972321,91.334335 
	C283.447937,117.414604 309.680328,143.255280 336.830475,170.000000 
	C288.915314,170.000000 242.208862,170.000000 195.003235,170.000000 
z"/>
<path fill="#FFFFFF" opacity="0" stroke="none" 
	d="
M265.000000,392.240479 
	C265.005829,390.938141 264.987671,390.104797 265.029633,389.274506 
	C265.045807,388.954956 265.198761,388.642303 265.390747,387.973267 
	C276.717224,389.854706 285.116394,396.221558 292.001404,405.010101 
	C298.453278,413.245728 300.682556,423.018219 300.876099,433.045929 
	C301.283569,454.157104 300.999908,475.281586 300.999908,496.700012 
	C289.085022,496.700012 277.356262,496.700012 265.000000,496.700012 
	C265.000000,462.127441 265.000000,427.419067 265.000000,392.240479 
z"/>
<path fill="#FFFFFF" opacity="0" stroke="none" 
	d="
M239.100189,390.989441 
	C242.444031,389.816742 245.394791,388.681305 248.780579,387.378510 
	C248.780579,424.226776 248.780579,460.304443 248.780579,496.691284 
	C237.098297,496.691284 225.364761,496.691284 213.300095,496.691284 
	C213.217941,496.109375 213.015579,495.341980 213.014923,494.574402 
	C212.997253,474.257660 212.694336,453.934967 213.089325,433.625916 
	C213.456985,414.721527 221.370941,399.934998 239.100189,390.989441 
z"/>
<path fill="#FFFFFF" opacity="0" stroke="none" 
	d="
M394.324646,256.000000 
	C403.113495,256.000000 411.459839,255.628448 419.753448,256.129913 
	C425.335083,256.467377 428.787476,252.583786 428.958588,246.689835 
	C429.142029,240.371521 428.999969,234.043747 428.999969,227.360168 
	C433.461121,227.360168 437.867188,227.360168 443.000000,227.360168 
	C443.000000,233.786575 442.996002,240.529495 443.001190,247.272415 
	C443.005859,253.331284 445.584076,255.991516 451.476990,255.997574 
	C460.466797,256.006775 469.456757,256.026276 478.446411,255.989029 
	C483.019653,255.970078 485.968323,252.969406 485.991089,248.346680 
	C486.025330,241.388275 486.000000,234.429565 486.000000,227.237885 
	C489.712250,227.237885 493.114227,227.237885 496.760468,227.237885 
	C496.760468,241.033096 496.760468,254.762695 496.760468,268.746796 
	C456.008148,268.746796 415.302094,268.746796 374.297791,268.746796 
	C374.297791,255.079834 374.297791,241.351547 374.297791,227.310791 
	C377.565460,227.310791 380.970917,227.310791 385.000000,227.310791 
	C385.000000,233.731247 384.982300,240.321487 385.005096,246.911606 
	C385.026642,253.131012 387.522797,255.672256 394.324646,256.000000 
z"/>
<path fill="#FFFFFF" opacity="0" stroke="none" 
	d="
M18.226711,268.969788 
	C17.495966,267.206390 17.042089,265.470306 17.033106,263.731903 
	C16.970467,251.612366 17.000000,239.492325 17.000000,227.188446 
	C20.690912,227.188446 23.981464,227.188446 28.000000,227.188446 
	C28.000000,233.953583 27.989019,240.868088 28.003544,247.782532 
	C28.014757,253.121155 30.789816,255.982147 36.002850,255.994232 
	C45.002350,256.015106 54.001968,256.015167 63.001469,255.994171 
	C68.210602,255.982025 70.985161,253.118042 70.996506,247.778214 
	C71.010925,240.987061 71.000000,234.195847 71.000000,227.205856 
	C75.784279,227.205856 80.189194,227.205856 85.000000,227.205856 
	C85.000000,233.499115 85.113457,239.623550 84.967499,245.741806 
	C84.826714,251.643036 88.131142,256.725006 95.319061,256.153076 
	C103.599556,255.494202 111.972862,256.029968 120.305588,255.989731 
	C126.090408,255.961792 128.959793,253.056152 128.991638,247.230072 
	C129.027817,240.609009 129.000000,233.987579 129.000000,227.187439 
	C132.693207,227.187439 135.983994,227.187439 139.637787,227.187439 
	C139.637787,240.793015 139.637787,254.535110 139.637787,268.996063 
	C99.524780,268.996063 59.117126,268.996063 18.226711,268.969788 
z"/>
<path fill="#fff" opacity="0" stroke="none" 
	d="
M276.019318,17.000000 
	C288.147980,17.000000 299.778870,17.000000 312.641083,17.000000 
	C301.957794,26.291162 302.147125,35.419052 312.868774,44.752563 
	C296.201202,44.752563 280.866028,44.752563 265.264771,44.752563 
	C265.264771,35.678726 265.264771,26.616104 265.264771,17.000000 
	C268.651184,17.000000 272.086365,17.000000 276.019318,17.000000 
z"/>
<path fill="#fff" opacity="1" stroke="none" 
	d="
M228.000015,273.563446 
	C228.000000,257.301544 228.157440,241.493988 227.954056,225.691086 
	C227.764984,210.999710 241.228470,198.241928 255.887482,197.859436 
	C269.738983,197.498001 282.026276,206.397644 285.562927,220.080490 
	C285.926636,221.487656 285.979706,223.004654 285.982330,224.471039 
	C286.010681,240.276520 285.718231,256.089600 286.140961,271.883789 
	C286.306244,278.058594 283.298340,280.690399 277.776886,280.859802 
	C263.980835,281.282990 250.159454,281.175629 236.356293,280.890961 
	C232.271820,280.806702 228.161194,279.486511 228.000015,273.563446 
M270.000000,249.496704 
	C270.000000,241.848602 270.009338,234.200470 269.997101,226.552383 
	C269.987091,220.305237 265.952118,216.115158 259.163574,214.112930 
	C254.735199,212.806824 247.928177,216.182526 245.838104,220.786102 
	C244.744965,223.193832 244.119278,226.017227 244.079468,228.664871 
	C243.898254,240.723831 244.000000,252.787033 244.000000,264.701782 
	C253.026718,264.701782 261.419525,264.701782 270.000000,264.701782 
	C270.000000,259.768433 270.000000,255.131866 270.000000,249.496704 
z"/>
<path fill="#fff" opacity="1.000000" stroke="none" 
	d="
M196.000031,199.877350 
	C195.953735,195.433319 197.327972,191.996780 201.742584,191.861298 
	C210.522781,191.591812 219.357574,191.448929 228.097534,192.152191 
	C233.188004,192.561813 233.559097,197.459488 232.834991,201.334335 
	C232.229263,204.575775 229.860001,207.034348 225.933548,207.012207 
	C218.453339,206.970016 210.972672,207.012573 203.492264,206.995239 
	C199.026489,206.984894 196.680267,204.559662 196.000031,199.877350 
z"/>
<path fill="#fff" opacity="1.000000" stroke="none" 
	d="
M391.000000,372.975403 
	C391.000000,360.662415 391.165741,348.842224 390.964783,337.028259 
	C390.571198,313.891815 414.055084,299.712036 434.612488,310.415619 
	C442.811005,314.684326 448.510620,321.953308 448.910583,331.709137 
	C449.575073,347.917999 449.934387,364.151581 449.855865,380.372040 
	C449.828064,386.115326 447.948944,389.980804 439.951874,389.994293 
	C427.302307,390.015656 414.651428,389.892487 402.003571,390.040802 
	C394.548798,390.128235 389.797821,386.706482 390.960358,378.957581 
	C391.229004,377.167053 391.000000,375.301849 391.000000,372.975403 
M434.000000,347.523682 
	C433.673584,343.303650 433.646851,339.033875 432.956818,334.874176 
	C431.622650,326.831787 426.192993,322.282562 419.147339,323.022736 
	C413.136719,323.654144 406.356934,330.920959 406.869934,337.773468 
	C407.438690,345.371002 407.000000,353.043945 407.000000,360.684052 
	C407.000000,365.088440 407.000000,369.492828 407.000000,373.690552 
	C416.397095,373.690552 425.117065,373.690552 434.000000,373.690552 
	C434.000000,365.093323 434.000000,356.804779 434.000000,347.523682 
z"/>
<path fill="#fff" opacity="1.000000" stroke="none" 
	d="
M425.093750,457.000000 
	C422.612579,456.997589 420.592407,457.188873 418.622498,456.955688 
	C413.157684,456.308868 410.708679,453.228516 411.000122,447.659546 
	C411.259399,442.705780 413.475342,441.007233 419.713562,441.001373 
	C426.204620,440.995270 432.695709,440.997070 439.186768,441.000885 
	C444.851105,441.004242 447.693420,443.647003 448.077271,448.390228 
	C448.464539,453.175110 444.961853,456.562439 439.055450,456.942871 
	C434.580231,457.231079 430.071503,457.000000 425.093750,457.000000 
z"/>
<path fill="#fff" opacity="1.000000" stroke="none" 
	d="
M409.941345,432.000000 
	C404.793701,432.000000 400.135498,432.007629 395.477386,431.998077 
	C389.648956,431.986115 386.072815,429.455597 386.184326,424.427460 
	C386.275970,420.294373 388.876404,416.607635 393.186401,416.460052 
	C401.696533,416.168640 410.265442,416.442963 418.752899,417.160004 
	C422.594818,417.484558 423.995514,421.276184 423.881989,424.737366 
	C423.734009,429.248718 420.612213,431.938843 416.419861,431.995361 
	C414.423889,432.022247 412.427216,432.000000 409.941345,432.000000 
z"/>
<path fill="#fff" opacity="1.000000" stroke="none" 
	d="
M181.006256,405.000000 
	C177.192184,404.999908 173.867950,405.107910 170.553543,404.973785 
	C165.855881,404.783630 163.041763,401.588959 163.000015,396.639801 
	C162.963333,392.289307 166.004105,389.111938 170.660767,389.033081 
	C177.962326,388.909363 185.267685,388.972321 192.571121,389.011139 
	C196.552902,389.032288 199.807526,392.041473 199.999924,395.751526 
	C200.275955,401.074249 197.659622,404.667938 192.951111,404.952698 
	C189.147202,405.182739 185.318298,404.999756 181.006256,405.000000 
z"/>
<path fill="#fff" opacity="1.000000" stroke="none" 
	d="
M324.118011,371.000000 
	C329.925690,371.000000 335.251404,370.991211 340.577026,371.002411 
	C346.159332,371.014160 348.667847,372.946533 348.999573,377.459869 
	C349.406433,382.995544 346.995056,386.562195 341.576141,386.882599 
	C334.278809,387.313995 326.922028,387.277954 319.619232,386.896912 
	C314.388947,386.624023 311.669525,382.833252 312.000244,377.569977 
	C312.251801,373.567169 315.611053,371.012360 320.640289,371.000336 
	C321.638855,370.997955 322.637421,371.000000 324.118011,371.000000 
z"/>
<path fill="#fff" opacity="1.000000" stroke="none" 
	d="
M97.603394,308.009399 
	C108.302246,312.060059 115.075562,319.224243 117.609871,330.113251 
	C117.904755,331.380249 117.982056,332.721985 117.984108,334.029358 
	C118.008720,349.668945 118.013237,365.308624 117.993362,380.948212 
	C117.985603,387.060516 115.330254,389.908478 109.099297,389.962982 
	C95.457260,390.082336 81.813248,390.044342 68.170494,389.977966 
	C62.762794,389.951660 59.086525,386.091003 59.037239,380.149963 
	C58.921303,366.175079 58.707561,352.190521 59.092602,338.225311 
	C59.400757,327.048584 63.113369,317.335693 73.351677,311.102844 
	C80.905060,306.504456 88.850166,306.043579 97.603394,308.009399 
M84.731880,323.995850 
	C79.553307,325.063690 76.425957,329.039276 76.225655,333.480835 
	C75.621704,346.873230 76.007698,360.310211 76.007698,373.750000 
	C84.915932,373.750000 93.313095,373.750000 101.999268,373.750000 
	C101.999268,360.718811 102.264076,347.928131 101.904121,335.155090 
	C101.672676,326.942322 93.094986,321.378265 84.731880,323.995850 
z"/>
<path fill="#fff" opacity="1.000000" stroke="none" 
	d="
M52.008224,426.519806 
	C50.647598,419.443817 56.183094,415.787140 61.959610,416.006989 
	C69.193336,416.282318 76.483856,416.154663 83.636253,417.079498 
	C88.101425,417.656830 90.085976,421.746796 88.918594,426.418335 
	C88.040115,429.933807 85.787598,432.152222 81.661263,432.046051 
	C74.999130,431.874573 68.312798,431.714111 61.668552,432.099060 
	C57.127026,432.362122 54.102604,430.773987 52.008224,426.519806 
z"/>
<path fill="#fff" opacity="1.000000" stroke="none" 
	d="
M94.996536,441.000000 
	C98.486893,441.000000 101.481010,440.994202 104.475090,441.001251 
	C110.388878,441.015198 113.821304,443.407562 113.786537,448.535797 
	C113.758430,452.680389 111.168320,456.354279 106.848808,456.505188 
	C98.345345,456.802307 89.781120,456.563995 81.302048,455.842255 
	C77.130798,455.487183 75.593895,451.384796 76.226166,447.851746 
	C76.854195,444.342316 78.381180,440.543091 83.526222,440.944977 
	C87.163475,441.229126 90.840828,441.000000 94.996536,441.000000 
z"/>
<path fill="#FFFFFF" opacity="0" stroke="none" 
	d="
M270.000000,249.996002 
	C270.000000,255.131866 270.000000,259.768433 270.000000,264.701782 
	C261.419525,264.701782 253.026718,264.701782 244.000000,264.701782 
	C244.000000,252.787033 243.898254,240.723831 244.079468,228.664871 
	C244.119278,226.017227 244.744965,223.193832 245.838104,220.786102 
	C247.928177,216.182526 254.735199,212.806824 259.163574,214.112930 
	C265.952118,216.115158 269.987091,220.305237 269.997101,226.552383 
	C270.009338,234.200470 270.000000,241.848602 270.000000,249.996002 
z"/>
<path fill="#FFFFFF" opacity="0" stroke="none" 
	d="
M434.000000,348.019958 
	C434.000000,356.804779 434.000000,365.093323 434.000000,373.690552 
	C425.117065,373.690552 416.397095,373.690552 407.000000,373.690552 
	C407.000000,369.492828 407.000000,365.088440 407.000000,360.684052 
	C407.000000,353.043945 407.438690,345.371002 406.869934,337.773468 
	C406.356934,330.920959 413.136719,323.654144 419.147339,323.022736 
	C426.192993,322.282562 431.622650,326.831787 432.956818,334.874176 
	C433.646851,339.033875 433.673584,343.303650 434.000000,348.019958 
z"/>
<path fill="#FFFFFF" opacity="0" stroke="none" 
	d="
M85.142700,323.959534 
	C93.094986,321.378265 101.672676,326.942322 101.904121,335.155090 
	C102.264076,347.928131 101.999268,360.718811 101.999268,373.750000 
	C93.313095,373.750000 84.915932,373.750000 76.007698,373.750000 
	C76.007698,360.310211 75.621704,346.873230 76.225655,333.480835 
	C76.425957,329.039276 79.553307,325.063690 85.142700,323.959534 
z"/>
</svg>